<?xml version="1.0"?>
<svg xmlns="http://www.w3.org/2000/svg" height="512px" viewBox="0 0 60 42" width="512px"><g><g id="Page-1" fill="none" fill-rule="evenodd"><g id="025---Can-Holder" fill="rgb(0,0,0)" fill-rule="nonzero" transform="translate(-1 -1)"><path id="Shape" d="m13 39c4.418278 0 8-3.581722 8-8s-3.581722-8-8-8-8 3.581722-8 8c.00495988 4.4162219 3.58377808 7.9950401 8 8zm0-14c3.3137085 0 6 2.6862915 6 6s-2.6862915 6-6 6-6-2.6862915-6-6c.00330738-3.3123376 2.68766243-5.9966926 6-6z" data-original="#000000" class="active-path" data-old_color="#000000" fill="#FFFFFF"/><path id="Shape" d="m18.73 21.182c-.2663049.1872658-.4247818.4924439-.4247818.818s.1584769.6307342.4247818.818c.9531655.669166 1.782834 1.4988345 2.452 2.452.1872658.2663049.4924439.4247818.818.4247818s.6307342-.1584769.818-.4247818c.669166-.9531655 1.4988345-1.782834 2.452-2.452.2663049-.1872658.4247818-.4924439.4247818-.818s-.1584769-.6307342-.4247818-.818c-.9531655-.669166-1.782834-1.4988345-2.452-2.452-.1964912-.2521752-.4983109-.3996265-.818-.3996265s-.6215088.1474513-.818.3996265c-.669166.9531655-1.4988345 1.782834-2.452 2.452zm3.27-.263c.3369673.3829654.6980346.7440327 1.081 1.081-.3829654.3369673-.7440327.6980346-1.081 1.081-.3369673-.3829654-.6980346-.7440327-1.081-1.081.3829654-.3369673.7440327-.6980346 1.081-1.081z" data-original="#000000" class="active-path" data-old_color="#000000" fill="#FFFFFF"/><path id="Shape" d="m36.73 21.182c-.2663049.1872658-.4247818.4924439-.4247818.818s.1584769.6307342.4247818.818c.9531655.669166 1.782834 1.4988345 2.452 2.452.1872658.2663049.4924439.4247818.818.4247818s.6307342-.1584769.818-.4247818c.669166-.9531655 1.4988345-1.782834 2.452-2.452.2663049-.1872658.4247818-.4924439.4247818-.818s-.1584769-.6307342-.4247818-.818c-.9531655-.669166-1.782834-1.4988345-2.452-2.452-.1964912-.2521752-.4983109-.3996265-.818-.3996265s-.6215088.1474513-.818.3996265c-.669166.9531655-1.4988345 1.782834-2.452 2.452zm3.27-.263c.3369673.3829654.6980346.7440327 1.081 1.081-.3829654.3369673-.7440327.6980346-1.081 1.081-.3369673-.3829654-.6980346-.7440327-1.081-1.081.3829654-.3369673.7440327-.6980346 1.081-1.081z" data-original="#000000" class="active-path" data-old_color="#000000" fill="#FFFFFF"/><path id="Shape" d="m31 21c4.418278 0 8-3.581722 8-8s-3.581722-8-8-8-8 3.581722-8 8c.0049599 4.4162219 3.5837781 7.9950401 8 8zm0-14c3.3137085 0 6 2.6862915 6 6s-2.6862915 6-6 6-6-2.6862915-6-6c.0033074-3.31233757 2.6876624-5.99669262 6-6z" data-original="#000000" class="active-path" data-old_color="#000000" fill="#FFFFFF"/><path id="Shape" d="m49 21c4.418278 0 8-3.581722 8-8s-3.581722-8-8-8-8 3.581722-8 8c.0049599 4.4162219 3.5837781 7.9950401 8 8zm0-14c3.3137085 0 6 2.6862915 6 6s-2.6862915 6-6 6-6-2.6862915-6-6c.0033074-3.31233757 2.6876624-5.99669262 6-6z" data-original="#000000" class="active-path" data-old_color="#000000" fill="#FFFFFF"/><path id="Shape" d="m13 21c4.418278 0 8-3.581722 8-8s-3.581722-8-8-8-8 3.581722-8 8c.00495988 4.4162219 3.58377808 7.9950401 8 8zm0-14c3.3137085 0 6 2.6862915 6 6s-2.6862915 6-6 6-6-2.6862915-6-6c.00330738-3.31233757 2.68766243-5.99669262 6-6z" data-original="#000000" class="active-path" data-old_color="#000000" fill="#FFFFFF"/><path id="Shape" d="m31 23c-4.418278 0-8 3.581722-8 8s3.581722 8 8 8 8-3.581722 8-8c-.0049599-4.4162219-3.5837781-7.9950401-8-8zm0 14c-3.3137085 0-6-2.6862915-6-6s2.6862915-6 6-6 6 2.6862915 6 6c-.0033074 3.3123376-2.6876624 5.9966926-6 6z" data-original="#000000" class="active-path" data-old_color="#000000" fill="#FFFFFF"/><path id="Shape" d="m1.1 32.566c.60971833 4.6688251 3.89607144 8.5484122 8.40107337 9.9175879s9.39436363-.02562 12.49892663-3.5655879c2.2715711 2.5940377 5.5519474 4.0817965 9 4.0817965s6.7284289-1.4877588 9-4.0817965c2.9495053 3.3530697 7.5184199 4.7885537 11.8556078 3.7248529s7.7235015-4.4502146 8.7869459-8.7874653-.3723096-8.9060805-3.7255537-11.8553876c3.3668435-2.9460563 4.8132814-7.5216386 3.7516113-11.8676413-1.06167-4.3460027-4.4548083-7.73934157-8.8007483-8.80126853-4.3459399-1.06192695-8.9216077.3842405-11.867863 3.75090983-2.2715711-2.59403775-5.5519474-4.08179648-9-4.08179648s-6.7284289 1.48775873-9 4.08179648c-2.9474362-3.36241418-7.5209907-4.8053936-11.8643894-3.74327449-4.34339871 1.0621191-7.73493428 4.45285299-8.79808017 8.79600049-1.06314588 4.3431475.37875228 8.917043 3.74046957 11.865274-3.00031506 2.6415083-4.49127438 6.6016582-3.978 10.566zm5.3-12.066c-2.89440068-2.5457159-4.06597733-6.5295147-3.01050154-10.2368312 1.05547579-3.70731646 4.1496732-6.47664617 7.95089764-7.11611255 3.8012245-.63946638 7.6312153.96503193 9.8416039 4.12294375.1872658.26630489.4924439.42478178.818.42478178s.6307342-.15847689.818-.42478178c1.8651667-2.67545737 4.920571-4.27000561 8.182-4.27000561s6.3168333 1.59454824 8.182 4.27000561c.1964912.25217524.4983109.39962648.818.39962648s.6215088-.14745124.818-.39962648c2.2103886-3.15791182 6.0403794-4.76241013 9.8416039-4.12294375 3.8012244.63946638 6.8954219 3.40879609 7.9508976 7.11611255 1.0554758 3.7073165-.1161008 7.6911153-3.0105015 10.2368312-.433238.3797533-.6816738.9278856-.6816738 1.504s.2484358 1.1242467.6816738 1.504c2.9033065 2.5436736 4.0814329 6.5323418 3.0261268 10.2452643-1.055306 3.7129224-4.1551971 6.4856704-7.9623577 7.1220602-3.8071607.6363899-7.6402981-.9774606-9.8457691-4.1453245-.1872658-.2663049-.4924439-.4247818-.818-.4247818s-.6307342.1584769-.818.4247818c-1.8651667 2.6754574-4.920571 4.2700056-8.182 4.2700056s-6.3168333-1.5945482-8.182-4.2700056c-.1872658-.2663049-.4924439-.4247818-.818-.4247818s-.6307342.1584769-.818.4247818c-2.2103886 3.1579118-6.0403794 4.7624101-9.8416039 4.1229438-3.80122444-.6394664-6.89542185-3.4087961-7.95089764-7.1161126s.11610086-7.6911153 3.01050154-10.2368312c.43323799-.3797533.68167379-.9278856.68167379-1.504s-.2484358-1.1242467-.68167379-1.504z" data-original="#000000" class="active-path" data-old_color="#000000" fill="#FFFFFF"/><path id="Shape" d="m49 23c-4.418278 0-8 3.581722-8 8s3.581722 8 8 8 8-3.581722 8-8c-.0049599-4.4162219-3.5837781-7.9950401-8-8zm0 14c-3.3137085 0-6-2.6862915-6-6s2.6862915-6 6-6 6 2.6862915 6 6c-.0033074 3.3123376-2.6876624 5.9966926-6 6z" data-original="#000000" class="active-path" data-old_color="#000000" fill="#FFFFFF"/></g></g></g> </svg>
