<?xml version="1.0"?>
<svg xmlns="http://www.w3.org/2000/svg" id="Layer_5" enable-background="new 0 0 64 64" height="512px" viewBox="0 0 64 64" width="512px"><g><g><path d="m51.222 17.992c.499-.599.778-1.263.778-1.992 0-.835-.396-2.01-2.139-3.134.082-.279.139-.565.139-.866 0-1.69-1.441-3.196-4.048-4.29-.223-1.564-1.234-2.929-2.705-3.584l-7.714-3.428-.638 1.276c-.934 1.867-2.809 3.026-4.895 3.026-1.719 0-3.175 1.095-3.74 2.62-1.764.707-3.014 1.589-3.684 2.597-.503-.137-1.03-.217-1.576-.217-1.992 0-3.755.98-4.847 2.478-1.966-2.284-3.153-5.791-3.153-9.478h-2c0 4.489 1.614 8.764 4.227 11.384-.144.515-.227 1.055-.227 1.616 0 2.648 1.727 4.897 4.112 5.691-.152.911-.148 1.843.021 2.786.436 2.418 2.041 4.498 4.178 5.621l10.423 31.27c.327.977 1.237 1.632 2.266 1.632s1.939-.655 2.265-1.632l10.455-31.366c2.42-1.29 4.109-3.71 4.267-6.548.111-1.991-.529-3.929-1.765-5.462zm-1.222-1.992c0 1.631-5.454 4-14 4-3.604 0-7.047-.443-9.685-1.226.34-.649.566-1.366.648-2.126 2.485.863 5.675 1.352 9.037 1.352 5.108 0 10.455-1.192 12.789-3.443.766.497 1.211 1.014 1.211 1.443zm-20-9c2.686 0 5.116-1.407 6.453-3.704l5.981 2.658c.951.423 1.566 1.368 1.566 2.409 0 1.454-1.183 2.637-2.637 2.637h-11.363c-1.103 0-2-.897-2-2s.897-2 2-2zm-3.897 2.874c.401 1.786 1.993 3.126 3.897 3.126h11.363c2.05 0 3.773-1.346 4.384-3.194 1.408.683 2.253 1.483 2.253 2.194 0 1.67-4.565 4-12 4-3.558 0-6.871-.57-9.213-1.561-.373-1.38-1.222-2.564-2.366-3.361.359-.413.934-.825 1.682-1.204zm-9.103 6.126c0-2.206 1.794-4 4-4s4 1.794 4 4-1.794 4-4 4-4-1.794-4-4zm19.368 44.735c-.105.316-.63.316-.735 0l-9.947-29.841c2.052.329 4.128-.135 5.814-1.282.471.322.973.591 1.501.805v14.583c0 1.654 1.346 3 3 3s3-1.346 3-3v-10h1c1.654 0 3-1.346 3-3v-1h1.723c.549 0 1.086-.052 1.607-.15zm14.622-37.392c-.176 3.172-2.929 5.657-6.267 5.657h-3.723v3c0 .552-.449 1-1 1h-3v12c0 .552-.449 1-1 1s-1-.448-1-1v-16.036l-.714-.213c-.788-.235-1.509-.625-2.143-1.158l-.643-.541-.644.541c-1.363 1.146-3.096 1.612-4.876 1.324-2.435-.4-4.441-2.372-4.878-4.796-.13-.721-.133-1.433-.015-2.125 1.508-.022 2.879-.604 3.923-1.545 2.915.984 6.864 1.549 10.99 1.549 5.342 0 10.717-.935 13.677-2.74.919 1.149 1.396 2.596 1.313 4.083z" data-original="#000000" class="active-path" data-old_color="#000000" fill="#FFFFFF"/><path d="m23 22.382h2v2.236h-2z" transform="matrix(.447 -.894 .894 .447 -7.752 34.457)" data-original="#000000" class="active-path" data-old_color="#000000" fill="#FFFFFF"/><path d="m26.882 25.5h2.236v2h-2.236z" transform="matrix(.894 -.447 .447 .894 -8.895 15.32)" data-original="#000000" class="active-path" data-old_color="#000000" fill="#FFFFFF"/><path d="m33 23.382h2v2.236h-2z" transform="matrix(.447 -.894 .894 .447 -3.119 43.954)" data-original="#000000" class="active-path" data-old_color="#000000" fill="#FFFFFF"/><path d="m37.882 27.5h2.236v2h-2.236z" transform="matrix(.894 -.447 .447 .894 -8.628 20.45)" data-original="#000000" class="active-path" data-old_color="#000000" fill="#FFFFFF"/><path d="m41 23.382h2v2.236h-2z" transform="matrix(.447 -.894 .894 .447 1.304 51.109)" data-original="#000000" class="active-path" data-old_color="#000000" fill="#FFFFFF"/><path d="m46.882 21.5h2.236v2h-2.236z" transform="matrix(.894 -.447 .447 .894 -4.995 23.842)" data-original="#000000" class="active-path" data-old_color="#000000" fill="#FFFFFF"/></g></g> </svg>
