<?xml version="1.0"?>
<svg xmlns="http://www.w3.org/2000/svg" viewBox="0 0 512 512" width="512px" height="512px"><g><g id="outline"><rect x="160" y="80" width="32" height="16" data-original="#000000" class="active-path" data-old_color="#000000" fill="#FFFFFF"/><rect x="160" y="112" width="32" height="16" data-original="#000000" class="active-path" data-old_color="#000000" fill="#FFFFFF"/><rect x="160" y="144" width="32" height="16" data-original="#000000" class="active-path" data-old_color="#000000" fill="#FFFFFF"/><path d="M304,88H288a16.019,16.019,0,0,1-16,16v16A32.036,32.036,0,0,0,304,88Z" data-original="#000000" class="active-path" data-old_color="#000000" fill="#FFFFFF"/><path d="M344,128V112a16.019,16.019,0,0,1-16-16H312A32.036,32.036,0,0,0,344,128Z" data-original="#000000" class="active-path" data-old_color="#000000" fill="#FFFFFF"/><path d="M427.992,476.233a152.1,152.1,0,0,1-40.952,1.829l-139.1-12.646A8.726,8.726,0,0,1,248.726,448H356a20.032,20.032,0,0,0,20-20.019v-.187a19.549,19.549,0,0,0-3.889-11.66l-18.317-24.412A9.013,9.013,0,0,1,352,386.343v-1.372a8.97,8.97,0,0,1,15.313-6.343l35.03,35.029A8,8,0,0,0,408,416h88V400H411.313l-32.685-32.687A25.377,25.377,0,0,0,376,365.029V184a8,8,0,0,0-8-8h-8V152h12a28,28,0,0,0,0-56h-.827a24.972,24.972,0,0,0-35.318-35.051,32,32,0,0,0-63.71,0A24.972,24.972,0,0,0,236.827,96H236a27.838,27.838,0,0,0-12,2.707V64a48,48,0,0,0-96,0V176h-8a8,8,0,0,0-8,8v35.178L69.041,256H16v16H72a8,8,0,0,0,5.206-1.926l46.368-39.744A26.314,26.314,0,0,1,140.687,224a3.313,3.313,0,0,1,2.342,5.656l-28.686,28.687A8,8,0,0,0,120,272h84a4,4,0,0,1,0,8H144a8,8,0,0,0,0,16h84a4,4,0,0,1,0,8H144a8,8,0,0,0,0,16h68a4,4,0,0,1,0,8H144a8,8,0,0,0,0,16h39.5a.5.5,0,0,1,.061.992l-54.935,6.867L74.2,336.308A8,8,0,0,0,72,336H16v16H70.88L112,363.749V440h.019A7.943,7.943,0,0,0,120,448H225.6a24.716,24.716,0,0,0,20.892,33.35L385.591,494q7.593.692,15.209.691a168.085,168.085,0,0,0,30.054-2.71l66.577-12.105-2.862-15.742ZM208,144a8.009,8.009,0,0,1,8-8h16a32.036,32.036,0,0,1,32,32,8.009,8.009,0,0,1-8,8H240A32.036,32.036,0,0,1,208,144Zm28-32h20a8,8,0,0,0,5.657-13.657l-12-12a8.97,8.97,0,1,1,12.686-12.686l12,12A8,8,0,0,0,288,80V64a16,16,0,0,1,32,0V80a8,8,0,0,0,13.657,5.657l12-12a8.97,8.97,0,1,1,12.686,12.686l-12,12A8,8,0,0,0,352,112h20a12,12,0,0,1,0,24H352a8,8,0,0,0-8,8v4.261a47.892,47.892,0,0,0-67.028,2.97A48.078,48.078,0,0,0,232,120h-7.3A12.01,12.01,0,0,1,236,112Zm106.987,64H281.013a32,32,0,0,1,61.974,0ZM144,64a32,32,0,0,1,64,0v57.376A24.039,24.039,0,0,0,192,144a47.8,47.8,0,0,0,12.261,32H144Zm16,128h16v64H160Zm-19.313,16A42.285,42.285,0,0,0,128,209.954V192h16v16.305A19.354,19.354,0,0,0,140.687,208ZM144,251.314V256h-4.687Zm16,112.748,16-2v58.623l-16-16Zm-31.008,3.876L144,366.062v38.624l-16,16V368A8.043,8.043,0,0,0,128.992,367.938ZM139.313,432,152,419.313,164.687,432ZM192,358.616a16.512,16.512,0,0,0,8-14.118c0-.167,0-.333-.008-.5H212a20.01,20.01,0,0,0,19.532-24.312A20,20,0,0,0,228,280h-4.4A20.014,20.014,0,0,0,204,256H192V192H360V360.025a25,25,0,0,0-24,24.946v1.372a25.109,25.109,0,0,0,5,14.983l18.316,24.41a3.452,3.452,0,0,1,.687,2.058v.187A4.014,4.014,0,0,1,356,432H192Z" data-original="#000000" class="active-path" data-old_color="#000000" fill="#FFFFFF"/></g></g> </svg>
