<?xml version="1.0"?>
<svg xmlns="http://www.w3.org/2000/svg" xmlns:xlink="http://www.w3.org/1999/xlink" version="1.1" id="Capa_1" x="0px" y="0px" viewBox="0 0 330.173 330.173" style="enable-background:new 0 0 330.173 330.173;" xml:space="preserve" width="512px" height="512px" class=""><g><g>
	<path d="M242.326,4.543C240.481,1.709,237.328,0,233.947,0H96.227c-3.382,0-6.534,1.709-8.38,4.543   c-1.845,2.833-2.133,6.408-0.766,9.501c5.439,12.302,7.315,25.844,5.425,39.162l-2.114,14.893   c-3.034,21.377,5.019,42.437,21.542,56.337l20.249,17.033c6.614,5.564,14.517,9.318,22.903,10.995v146.456l-20.806,12.723   c-3.821,2.337-5.623,6.93-4.409,11.241s5.147,7.29,9.626,7.29h51.179c4.479,0,8.412-2.979,9.626-7.29s-0.588-8.904-4.409-11.241   l-20.806-12.723V152.464c8.386-1.677,16.288-5.431,22.902-10.995l20.25-17.034c16.523-13.899,24.576-34.959,21.542-56.336   l-2.114-14.893c-1.89-13.317-0.014-26.859,5.425-39.162C244.46,10.951,244.172,7.376,242.326,4.543z M219.905,20   c-3.044,11.704-3.754,23.932-2.04,36.016l0.495,3.488H111.813l0.495-3.488c1.715-12.084,1.004-24.313-2.04-36.016H219.905z    M205.365,109.13l-20.25,17.034c-5.599,4.709-12.711,7.303-20.028,7.303s-14.429-2.594-20.028-7.304l-20.249-17.033   c-8.979-7.553-14.259-18.226-14.952-29.626h110.459C219.623,90.905,214.344,101.577,205.365,109.13z" data-original="#000000" class="active-path" data-old_color="#000000" fill="#FFFFFF"/>
</g></g> </svg>
