<?xml version="1.0"?>
<svg xmlns="http://www.w3.org/2000/svg" id="Capa_1" enable-background="new 0 0 512 512" height="512px" viewBox="0 0 512 512" width="512px" class=""><g><g><path d="m497 241h-482c-8.284 0-15 6.716-15 15 0 78.752 47.808 149.722 120 179.828v30.172c0 8.284 6.716 15 15 15h242c8.284 0 15-6.716 15-15v-30.172c72.548-30.255 120-101.445 120-179.828 0-8.284-6.716-15-15-15zm-15.687 30c-.941 10.251-2.85 20.283-5.625 30h-439.376c-2.775-9.717-4.684-19.749-5.625-30zm-109.319 140.397c-5.99 2.121-9.994 7.786-9.994 14.14v25.463h-212v-25.463c0-6.354-4.004-12.019-9.994-14.14-40.618-14.38-72.989-43.691-91.832-80.397h415.652c-18.842 36.706-51.214 66.017-91.832 80.397z" data-original="#000000" class="active-path" data-old_color="#000000" fill="#FFFFFF"/><path d="m155.394 176.607c5.857 5.858 15.355 5.859 21.213 0 22.391-22.391 22.391-58.822 0-81.213-10.718-10.719-10.719-28.067 0-38.787 5.858-5.858 5.858-15.355 0-21.213-5.857-5.858-15.355-5.858-21.213 0-22.391 22.391-22.391 58.822 0 81.213 10.718 10.719 10.719 28.067 0 38.787-5.858 5.858-5.858 15.355 0 21.213z" data-original="#000000" class="active-path" data-old_color="#000000" fill="#FFFFFF"/><path d="m245.394 176.607c5.857 5.858 15.355 5.859 21.213 0 22.391-22.391 22.391-58.822 0-81.213-10.718-10.719-10.719-28.067 0-38.787 5.858-5.858 5.858-15.355 0-21.213-5.857-5.858-15.355-5.858-21.213 0-22.391 22.391-22.391 58.822 0 81.213 10.718 10.719 10.719 28.067 0 38.787-5.858 5.858-5.858 15.355 0 21.213z" data-original="#000000" class="active-path" data-old_color="#000000" fill="#FFFFFF"/><path d="m335.394 176.607c5.857 5.858 15.355 5.859 21.213 0 22.391-22.391 22.391-58.822 0-81.213-10.717-10.718-10.719-28.067 0-38.787 5.858-5.858 5.858-15.355 0-21.213-5.857-5.858-15.355-5.858-21.213 0-22.391 22.391-22.391 58.822 0 81.213 10.717 10.718 10.719 28.068 0 38.787-5.859 5.858-5.859 15.355 0 21.213z" data-original="#000000" class="active-path" data-old_color="#000000" fill="#FFFFFF"/></g></g> </svg>
