<?xml version="1.0"?>
<svg xmlns="http://www.w3.org/2000/svg" xmlns:xlink="http://www.w3.org/1999/xlink" version="1.1" id="Capa_1" x="0px" y="0px" viewBox="0 0 512 512" style="enable-background:new 0 0 512 512;" xml:space="preserve" width="512px" height="512px"><g><g>
	<g>
		<path d="M303.666,187.959V0h-95.333v187.959c-26.88,12.333-44.833,39.583-44.833,69.791V512h185V257.75    C348.499,227.542,330.545,200.292,303.666,187.959z M238.333,30h35.333v24.5h-35.333V30z M193.498,257.75    c0.001-20.788,13.956-39.274,33.937-44.957l10.897-3.099V84.5h35.333v125.194l10.897,3.099    c19.981,5.683,33.936,24.169,33.936,44.957V272h-125V257.75z M318.499,482h-125v-58h125V482z M318.499,394h-125v-92h125V394z" data-original="#000000" class="active-path" data-old_color="#000000" fill="#FFFFFF"/>
	</g>
</g></g> </svg>
