<?xml version="1.0"?>
<svg xmlns="http://www.w3.org/2000/svg" id="Capa_1" enable-background="new 0 0 512.277 512.277" height="512px" viewBox="0 0 512.277 512.277" width="512px"><g><g><path d="m350.754 503.15c-2.642-11.897-11.869-19.989-22.963-24.033-6.003-2.188-12.404-2.299-18.234-4.798-6.851-2.937-12.981-8.024-17.809-13.649-7.82-9.11-12.216-20.914-12.216-32.924 0-.019 0-56.646 0-56.646 34.408-9.729 58.781-41.496 58.781-77.768v-168.372c0-4.143-3.357-7.5-7.5-7.5s-7.5 3.357-7.5 7.5v122.07c0 2.491-32.137.906-35.114.599-11.98-1.236-23.807-3.719-35.421-6.871-21.939-5.955-42.714-14.359-63.813-22.255v-203.503h134.348v75.213c0 4.143 3.357 7.5 7.5 7.5s7.5-3.357 7.5-7.5v-76.532c-.001-7.544-6.137-13.681-13.681-13.681h-136.987c-7.543 0-13.681 6.137-13.681 13.681v279.652c0 35.908 23.894 67.388 57.78 77.462.335.099.664.21 1.001.306v31.747c0 4.143 3.358 7.5 7.5 7.5s7.5-3.357 7.5-7.5v-29.013c2.319.202 14.467.197 16.785-.007v53.92c0 14.803 5.156 29.377 14.4 40.932 4.593 5.741 10.15 10.707 16.389 14.6 7.314 4.564 14.546 7.608 23.069 8.778.1.014 6.699 1.017 11.907 5.221 0 0-148.315 0-148.312-.002 5.839-4.711 14.986-6.372 22.055-8.473 7.62-2.265 14.16-5.603 20.36-10.774 11.855-9.888 19.785-23.94 22.397-39.133.702-4.082-2.039-7.961-6.121-8.662-4.081-.706-7.96 2.039-8.662 6.121-2.121 12.341-8.792 23.69-18.729 31.345-10.981 8.46-24.59 8.072-36.165 14.805-7.816 4.547-13.615 11.732-15.595 20.646-.494 2.221.047 4.546 1.471 6.32 1.423 1.774 3.575 2.807 5.85 2.807h174.587c2.275 0 4.427-1.032 5.851-2.808s1.965-4.1 1.472-6.321zm-79.139-145.543c-13.3 2.905-27.098 2.147-39.857-2.617-25.306-9.456-42.793-33.935-42.793-61.658l.004-58.801c42.526 16.123 87.863 34.1 134.34 27.677l.004 31.124c-.001 30.871-21.679 57.719-51.698 64.275z" data-original="#000000" class="active-path" data-old_color="#000000" fill="#FFFFFF"/></g></g> </svg>
